{"asset":{"version":"2.0","generator":"THREE.GLTFExporter"},"scenes":[{"name":"default","nodes":[0,1]}],"scene":0,"nodes":[{"name":"Street-col","extras":{"data":{"name":"Street-col","points":[{"name":"Origin","pos":{"x":0,"y":0,"z":0}}],"billboard":{"enabled":false,"y":false},"directional":{"enabled":false,"mode":"cameraAngle","angles":[]},"custom":[],"instance":{"name":"Street-col","uuid":"290D7DB4-ABEB-4119-B614-0C88AEF05232","parent":null,"pos":{"x":0,"y":0,"z":0},"rot":{"x":0,"y":0,"z":0,"order":"XYZ"},"sca":{"x":1,"y":1,"z":1},"custom":[]}}},"mesh":0},{"matrix":[1,0,0,0,0,1,0,0,0,0,1,0,5,0,5,1],"name":"Corner-col","extras":{"data":{"name":"Corner-col","points":[{"name":"Origin","pos":{"x":0,"y":0,"z":0}}],"billboard":{"enabled":false,"y":false},"directional":{"enabled":false,"mode":"cameraAngle","angles":[]},"custom":[],"instance":{"name":"Corner-col","uuid":"33FCCA49-4131-4D76-AE10-39E7C74EC941","parent":null,"pos":{"x":5,"y":0,"z":5},"rot":{"x":0,"y":0,"z":0,"order":"XYZ"},"sca":{"x":1,"y":1,"z":1},"custom":[]}}},"mesh":1}],"bufferViews":[{"buffer":0,"byteOffset":0,"byteLength":19164,"target":34962,"byteStride":12},{"buffer":0,"byteOffset":19164,"byteLength":19164,"target":34962,"byteStride":12},{"buffer":0,"byteOffset":38328,"byteLength":12776,"target":34962,"byteStride":8},{"buffer":0,"byteOffset":51104,"byteLength":5088,"target":34963},{"buffer":0,"byteOffset":56192,"byteLength":40800,"target":34962,"byteStride":12},{"buffer":0,"byteOffset":96992,"byteLength":40800,"target":34962,"byteStride":12},{"buffer":0,"byteOffset":137792,"byteLength":27200,"target":34962,"byteStride":8},{"buffer":0,"byteOffset":164992,"byteLength":10200,"target":34963}],"buffers":[{"byteLength":175192,"uri":"data:application/octet-stream;base64,"}],"accessors":[{"bufferView":0,"componentType":5126,"count":1597,"max":[15,0,15],"min":[-4,-0.0625,-14],"type":"VEC3"},{"bufferView":1,"componentType":5126,"count":1597,"max":[1,1,1],"min":[-1,0,-1],"type":"VEC3"},{"bufferView":2,"componentType":5126,"count":1597,"max":[0.3125,0.0625],"min":[0.0625,0],"type":"VEC2"},{"bufferView":3,"componentType":5123,"count":2544,"max":[1596],"min":[0],"type":"SCALAR"},{"bufferView":4,"componentType":5126,"count":3400,"max":[24,2,21],"min":[0,0,0],"type":"VEC3"},{"bufferView":5,"componentType":5126,"count":3400,"max":[1,1,1],"min":[-1,0,-1],"type":"VEC3"},{"bufferView":6,"componentType":5126,"count":3400,"max":[0.4375,0.0625],"min":[0.3125,0],"type":"VEC2"},{"bufferView":7,"componentType":5123,"count":5100,"max":[3399],"min":[0],"type":"SCALAR"}],"materials":[{"pbrMetallicRoughness":{"metallicFactor":0,"roughnessFactor":1,"baseColorTexture":{"index":0}},"alphaMode":"MASK","alphaCutoff":0.01,"name":"texture_1"}],"textures":[{"sampler":0,"source":0,"name":"texture_1"}],"samplers":[{"magFilter":9728,"minFilter":9728,"wrapS":33071,"wrapT":33071}],"images":[{"mimeType":"image/png","uri":"data:image/png;base64,"}],"meshes":[{"primitives":[{"mode":4,"attributes":{"POSITION":0,"NORMAL":1,"TEXCOORD_0":2},"indices":3,"material":0}]},{"primitives":[{"mode":4,"attributes":{"POSITION":4,"NORMAL":5,"TEXCOORD_0":6},"indices":7,"material":0}]}]}